HIERARCHY
ROOT Hips
{
  OFFSET 3.13124 94.3669 -3.18751
  CHANNELS  6 Xposition Yposition Zposition Zrotation Xrotation Yrotation
  JOINT LeftUpLeg
  {
    OFFSET 8.64259 1.95398 -2.38835
    CHANNELS 3 Zrotation Xrotation Yrotation
    JOINT LeftLeg
    {
      OFFSET 43.7702 0 0
      CHANNELS 3 Zrotation Xrotation Yrotation
      JOINT LeftFoot
      {
        OFFSET 40.6238 0 0
        CHANNELS 3 Zrotation Xrotation Yrotation
        JOINT LeftToeBase
        {
          OFFSET 12.7242 0 0
          CHANNELS 3 Zrotation Xrotation Yrotation
          End Site
          {
            OFFSET 0 0 0
          }
        }
      }
    }
  }
  JOINT RightUpLeg
  {
    OFFSET -8.2249 1.95398 -2.59336
    CHANNELS 3 Zrotation Xrotation Yrotation
    JOINT RightLeg
    {
      OFFSET 43.5653 0 0
      CHANNELS 3 Zrotation Xrotation Yrotation
      JOINT RightFoot
      {
        OFFSET 40.6238 0 0
        CHANNELS 3 Zrotation Xrotation Yrotation
        JOINT RightToeBase
        {
          OFFSET 12.7242 0 0
          CHANNELS 3 Zrotation Xrotation Yrotation
          End Site
          {
            OFFSET 0 0 0
          }
        }
      }
    }
  }
  JOINT Spine
  {
    OFFSET 0.165834 0.87714 6.61349
    CHANNELS 3 Zrotation Xrotation Yrotation
    JOINT Spine1
    {
      OFFSET 7.38962 1.71661e-005 0
      CHANNELS 3 Zrotation Xrotation Yrotation
      JOINT Spine2
      {
        OFFSET 11.9445 1.14441e-005 0
        CHANNELS 3 Zrotation Xrotation Yrotation
        JOINT Spine3
        {
          OFFSET 14.7254 4.19617e-005 0
          CHANNELS 3 Zrotation Xrotation Yrotation
          JOINT Spine4
          {
            OFFSET 10.9679 0 0
            CHANNELS 3 Zrotation Xrotation Yrotation
            JOINT RightShoulder
            {
              OFFSET 2.46616 -1.6653 3.69651
              CHANNELS 3 Zrotation Xrotation Yrotation
              JOINT RightArm
              {
                OFFSET 13.0012 0 0
                CHANNELS 3 Zrotation Xrotation Yrotation
                JOINT RightForeArm
                {
                  OFFSET 28.7848 1.52588e-005 0
                  CHANNELS 3 Zrotation Xrotation Yrotation
                  JOINT RightHand
                  {
                    OFFSET 26.5688 1.52588e-005 0
                    CHANNELS 3 Zrotation Xrotation Yrotation
                    End Site
                    {
                      OFFSET 0 0 0
                    }
                  }
                }
              }
            }
            JOINT LeftShoulder
            {
              OFFSET 2.38034 -1.29275 -3.75231
              CHANNELS 3 Zrotation Xrotation Yrotation
              JOINT LeftArm
              {
                OFFSET 16.3182 6.10352e-005 0
                CHANNELS 3 Zrotation Xrotation Yrotation
                JOINT LeftForeArm
                {
                  OFFSET 27.0901 0 0
                  CHANNELS 3 Zrotation Xrotation Yrotation
                  JOINT LeftHand
                  {
                    OFFSET 24.5451 1.52588e-005 0
                    CHANNELS 3 Zrotation Xrotation Yrotation
                    End Site
                    {
                      OFFSET 0 0 0
                    }
                  }
                }
              }
            }
            JOINT Neck
            {
              OFFSET 5.0226 -0.0266342 0
              CHANNELS 3 Zrotation Xrotation Yrotation
              JOINT Head
              {
                OFFSET 6.69363 2.86102e-005 0
                CHANNELS 3 Zrotation Xrotation Yrotation
                End Site
                {
                  OFFSET 0 0 0
                }
              }
            }
          }
        }
      }
    }
  }
}
MOTION
Frames:	15
Frame Time:	0.0333333
-80.8549 105.66 -103.635 -64.6423 -57.6902 -78.1113 174.137 33.2057 114.614 -55.1941 -13.0751 -0.0873975 12.6642 -14.4191 -22.853 28.7808 6.70925e-006 1.28611e-006 174.989 23.4765 76.7189 -5.7263 6.61939 0.337641 8.63034 12.6182 21.6407 28.7808 1.45281e-005 2.78206e-005 -1.24524 6.63832 -88.577 13.6453 -1.69108 4.5383 1.96725 -1.48993 4.60812 -20.5285 -2.97594 3.82189 -0.515867 -2.97593 3.82189 99.5485 -29.7441 -87.4571 38.7017 -5.76859 26.5755 -2.13216 -0.834116 -111.724 59.0715 7.33556 7.70535 -110.732 -65.0164 55.5896 -27.6202 30.2727 -18.9883 -37.3249 9.9276 -105.893 -43.9928 -7.3932 14.6911 -11.4139 17.7151 63.1362 -3.18064 15.3476 -6.67581 
-82.7755 105.941 -104.577 -65.9571 -55.8451 -79.7652 166.547 37.8072 119.235 -79.1717 -13.3173 0.488367 7.63476 -16.9482 -28.9736 28.7808 6.70925e-006 1.28611e-006 175 22.4283 76.7226 -7.26958 12.4499 0.706586 18.642 9.37338 13.6769 28.7808 1.45281e-005 2.78206e-005 -1.12528 6.40271 -88.8911 14.1289 -1.38524 4.76433 2.44975 -1.17446 4.82049 -20.0356 -2.75193 4.12956 -0.0229502 -2.75193 4.12955 99.991 -24.5659 -86.9798 38.4948 -4.83205 28.7296 3.54341 -2.9277 -112.46 59.1473 6.51708 6.22912 -110.911 -65.2205 55.4533 -24.4245 33.0567 -25.3485 -58.6839 16.0833 -102.021 -40.6164 -7.37609 16.4331 -11.7692 19.2423 64.575 -1.83804 16.9517 -6.98943 
-84.5429 104.144 -105.742 -68.1524 -55.288 -83.217 160.359 41.2292 121.22 -101.719 -21.9112 0.450622 3.48565 -20.7476 -37.782 28.7808 6.70925e-006 1.28611e-006 174.306 18.3748 75.2288 -5.35809 19.4285 1.17361 32.9661 7.02774 7.94602 28.7808 1.45281e-005 2.78206e-005 -1.53302 6.2719 -88.0406 14.3717 -1.35569 4.8196 2.69229 -1.1425 4.87442 -19.7912 -2.74033 4.1912 0.221438 -2.74032 4.1912 99.9229 -18.2001 -87.8065 37.6442 -4.26147 28.8604 12.5115 -6.82693 -113.949 65.7697 12.2419 13.5962 -109.451 -65.2298 57.2389 -19.932 32.2075 -33.6559 -68.4856 19.7691 -99.7826 -40.731 -8.78076 20.2785 -11.8074 20.9703 66.0653 -0.335122 18.5644 -6.90752 
-85.3027 102.909 -106.467 -72.4133 -55.3726 -85.7793 149.686 38.5443 133.677 -112.839 0.49598 2.28252 -33.3508 -12.3625 -63.2715 28.7808 6.70925e-006 1.28611e-006 173.33 15.7256 74.1275 -7.99004 15.2902 0.897237 30.9485 6.13045 7.34094 28.7808 1.45281e-005 2.78206e-005 -1.37998 6.3315 -89.5631 14.3038 -1.52166 4.69629 2.62506 -1.31372 4.7585 -19.8641 -2.86168 4.02363 0.148509 -2.86167 4.02364 99.7636 -11.9707 -89.0921 37.1691 -4.22823 28.5378 20.1089 -10.4299 -114.317 68.3819 15.611 17.4814 -108.364 -65.4793 58.6648 -16.4904 31.0112 -40.1174 -77.9502 22.7981 -96.6943 -40.7587 -8.44729 19.3947 -13.7166 20.7004 68.8131 3.73326 19.3593 -6.94916 
-86.7376 100.989 -107.574 -74.397 -56.1039 -87.4554 143.804 35.4842 138.636 -123.818 12.6623 3.46621 -45.7314 -6.20291 -78.6855 28.7808 6.70925e-006 1.28611e-006 172.295 12.7021 72.721 -8.17446 8.32319 0.455666 30.7382 5.87195 7.08435 28.7808 1.45281e-005 2.78206e-005 -1.57885 6.42712 -89.7312 14.1512 -1.71502 4.66828 2.47275 -1.50814 4.73901 -20.0203 -3.03774 3.93881 -0.00769613 -3.03776 3.93881 100.816 -11.3481 -86.1299 34.5801 -1.28048 25.2406 34.5196 -16.8449 -112.468 68.3433 22.4744 27.2461 -106.723 -63.9093 60.1082 -14.5282 29.9709 -45.4509 -77.1618 22.5744 -96.9834 -49.1212 -6.31801 9.93981 -12.1424 23.5938 69.8828 3.75396 21.0674 -7.90162 
-88.6256 96.9186 -109.032 -73.0098 -57.3939 -88.2449 136.345 39.9849 142.512 -136.3 23.0894 4.50889 -42.3864 -8.92577 -79.8204 28.7808 6.70925e-006 1.28611e-006 171.354 9.41598 71.0233 -5.0919 9.2879 0.521116 44.2624 10.047 8.73985 28.7808 1.45281e-005 2.78206e-005 -1.75639 6.23427 -88.6068 14.482 -2.01005 4.7212 2.80371 -1.80056 4.80483 -19.6934 -3.33507 3.90071 0.319255 -3.33506 3.9007 101.104 -9.21495 -85.4831 33.4 -0.389966 23.9293 51.5348 -24.2954 -108.36 58.5971 26.1725 39.4588 -105.023 -61.7404 61.4626 -12.5547 26.5896 -49.2533 -84.8082 25.6659 -94.0481 -46.9285 -5.05465 7.681 -12.0577 24.8219 68.2951 4.38997 22.3011 -6.74857 
-90.7071 92.6933 -110.557 -73.2769 -59.8131 -90.0338 131.242 50.2302 144.766 -142.127 33.4119 5.46929 -36.1234 -12.2013 -72.5814 28.7808 6.70925e-006 1.28611e-006 171.297 6.39698 70.9969 -4.34003 17.98 1.10115 59.2372 12.8276 8.09122 28.7808 1.45281e-005 2.78206e-005 -1.68624 6.22867 -87.6078 14.4443 -2.20082 4.97288 2.76541 -1.98011 5.0646 -19.7292 -3.59253 4.08372 0.283425 -3.59247 4.08372 101.924 -8.72841 -82.9696 33.0053 -1.29401 22.6192 64.8621 -29.9664 -103.603 47.2941 25.7593 49.3646 -103.941 -58.8575 61.8193 -11.0309 24.6567 -51.2886 -86.8902 28.9152 -93.2061 -40.2863 -2.01434 1.21993 -9.93645 26.4015 63.0475 2.82637 22.9627 -4.09108 
-92.8035 89.534 -112.585 -71.0929 -61.8971 -89.141 128.621 55.6036 147.284 -140.467 55.1237 8.15356 -25.3123 -22.6377 -76.7478 28.7808 6.70925e-006 1.28611e-006 172.612 6.28695 72.8092 -4.78425 26.0446 1.72075 71.8488 8.83669 4.02045 28.7808 1.45281e-005 2.78206e-005 -1.7681 6.22079 -86.3781 14.3805 -2.21103 5.11828 2.70104 -1.98394 5.2103 -19.7901 -3.64582 4.21953 0.222596 -3.64581 4.21954 102.363 -10.645 -81.605 33.8435 -3.96578 24.5585 70.2349 -33.6675 -101.609 43.8212 20.6706 43.0242 -103.047 -56.6134 62.1886 -9.77046 24.2083 -51.1927 -86.3412 32.8064 -93.6301 -32.6148 0.049475 -4.84117 -5.98339 28.1567 58.5108 1.6577 22.9336 -2.61435 
-93.7881 86.588 -113.886 -68.1654 -62.4259 -84.7725 125.619 67.325 149.447 -133.033 22.175 4.04424 -23.4611 -21.9071 -71.2496 28.7808 6.70925e-006 1.28611e-006 174.004 7.15933 76.3201 -5.23171 31.4454 2.20891 80.498 4.57007 1.34514 28.7808 1.45281e-005 2.78206e-005 -1.38971 6.3698 -87.3565 14.1365 -2.11636 5.02232 2.45724 -1.89359 5.11028 -20.0344 -3.52675 4.15634 -0.0217429 -3.52676 4.15632 102.219 -14.0419 -82.0019 35.5679 -7.6992 28.0383 76.3857 -36.5297 -98.5101 45.3143 15.079 29.7304 -102.602 -56.3065 62.6752 -9.56405 24.0974 -48.1509 -90.4849 36.5255 -91.2311 -30.0318 0.503426 -6.81046 -1.55009 29.7085 57.2815 2.48239 22.3353 -3.31996 
-95.0448 86.1642 -115.736 -64.407 -61.3583 -79.9491 153.404 76.8654 119.856 -125.154 -14.2083 1.5859 18.5763 -23.0912 -31.1039 28.7808 6.70925e-006 1.28611e-006 175.132 10.7398 79.4861 -7.35876 31.5783 2.21776 81.8928 2.81842 0.619967 28.7808 1.45281e-005 2.78206e-005 -0.989541 6.50228 -88.2965 13.9021 -1.68493 5.03874 2.22225 -1.46185 5.10776 -20.2609 -3.12011 4.30161 -0.248282 -3.12008 4.30162 101.413 -20.1836 -83.9626 35.513 -7.17875 27.1936 85.0119 -35.5117 -93.3531 49.2051 16.8637 30.3022 -101.771 -55.5285 63.5232 -8.88624 23.9879 -44.2227 -94.703 42.231 -88.2041 -19.5411 0.688523 -9.48958 5.08779 32.0862 54.2766 1.35683 22.0447 -2.29054 
-95.8278 85.5684 -116.949 -62.3221 -60.7009 -76.2114 151.483 74.8606 123.578 -107.111 -18.3913 0.877247 5.47405 -18.3082 -32.3597 28.7808 6.70925e-006 1.28611e-006 176.326 13.0143 82.3175 -9.53572 32.9169 2.34914 83.1406 2.41442 0.399513 28.7808 1.45281e-005 2.78206e-005 -0.431802 6.65551 -89.1088 13.5901 -1.38745 4.56555 1.91169 -1.1854 4.62202 -20.5786 -2.69446 3.9391 -0.566014 -2.69448 3.93909 101.019 -25.971 -84.6034 37.4614 -12.6287 25.9437 73.3672 -34.3756 -99.941 50.2575 9.55749 14.951 -103.173 -56.7109 62.0544 -9.72873 25.3397 -37.6302 -98.2375 45.2411 -85.4064 -15.2364 0.637632 -10.8262 7.22082 31.9943 55.6175 3.96297 20.7065 -2.41597 
-96.7321 84.9671 -118.158 -60.1647 -60.1469 -71.9494 153.51 71.7026 123.675 -91.1246 -21.8132 0.212361 -0.316256 -16.1647 -32.6582 28.7808 6.70925e-006 1.28611e-006 177.789 15.0703 85.5578 -11.2236 35.1566 2.57202 84.0281 2.11407 0.239433 28.7808 1.45281e-005 2.78206e-005 -0.0140044 6.86206 -89.5655 13.1579 -1.04299 3.84407 1.48154 -0.87293 3.88615 -21.0203 -2.14947 3.35382 -1.00764 -2.14946 3.35383 99.6116 -29.3743 -87.3585 37.1986 -16.1079 23.3705 60.7276 -34.7857 -107.774 42.8424 7.53229 13.7258 -103.212 -55.7445 61.6441 -10.845 27.1726 -33.1416 -100.231 45.4095 -83.9152 -12.3903 0.643367 -12.7586 13.1522 33.8353 53.0483 1.90506 20.4399 -1.28344 
-97.444 84.1032 -118.936 -58.5885 -60.4281 -68.26 155.625 68.2567 124.2 -76.9441 -14.0942 0.36787 -13.4976 -15.9794 -43.1723 28.7808 6.70925e-006 1.28611e-006 178.874 17.1806 88.3849 -14.4216 38.0682 2.87899 85.6637 2.03875 0.10624 28.7808 1.45281e-005 2.78206e-005 0.323069 7.1382 -90.0537 12.5942 -0.987079 3.41931 0.919062 -0.835709 3.45939 -21.5904 -1.96866 2.96526 -1.57774 -1.96867 2.96526 97.1186 -34.7679 -91.6738 34.9276 -18.0941 20.138 48.1821 -36.7309 -117.596 32.176 5.1243 12.3221 -100.961 -53.1996 63.8057 -14.3289 28.3553 -28.2647 -84.8001 41.1964 -94.9767 -14.7766 0.677624 -10.8035 21.9534 35.904 45.8438 -1.59181 20.8486 0.615852 
-98.1139 83.1564 -119.419 -57.6681 -61.6702 -64.8182 162.264 67.242 116.767 -70.4582 -13.8346 0.233531 -5.92762 -15.5829 -35.8216 28.7808 6.70925e-006 1.28611e-006 179.662 18.9652 91.1659 -18.9032 41.1412 3.24095 87.5281 3.68144 0.504605 28.7808 1.45281e-005 2.78206e-005 0.732844 7.36817 -90.752 12.1071 -0.752538 2.73271 0.433388 -0.631575 2.76315 -22.085 -1.53882 2.38053 -2.07237 -1.53883 2.38054 95.2356 -37.8478 -94.6598 32.2017 -21.2428 14.9477 37.8516 -37.2188 -126.732 19.1051 3.31806 14.0535 -100.364 -51.8103 64.1443 -19.8864 31.1603 -25.2659 -76.716 29.0163 -98.3926 -31.6996 4.34733 -21.4511 25.563 34.9841 40.0818 -2.65714 20.4044 3.80542 
-98.5857 81.5762 -119.617 -55.2769 -63.9634 -60.6263 171.401 68.6869 103.508 -73.8107 -26.6815 -0.611537 20.2862 -11.1331 -15.6522 28.7808 6.70925e-006 1.28611e-006 179.853 24.6738 93.1671 -31.8915 45.6412 4.11781 92.3869 7.95719 1.46235 28.7808 1.45281e-005 2.78206e-005 0.685002 7.54881 -90.7552 11.7471 -0.471684 1.98522 0.0747208 -0.383881 2.00404 -22.4511 -1.04644 1.7518 -2.43848 -1.04644 1.75179 94.1569 -40.6608 -96.0457 28.2525 -24.3143 6.45029 30.0517 -36.6216 -134.145 5.28604 1.24949 19.5616 -100.046 -49.8008 63.8656 -20.9252 29.3454 -22.9603 -73.8912 28.3997 -99.7448 -23.444 3.95294 -25.9098 27.7906 33.2202 34.5243 -3.19115 19.7405 6.08622 
